<svg width="25" height="24" viewBox="0 0 25 24" fill="none" xmlns="http://www.w3.org/2000/svg">
<path d="M22 16.5V6.5C22 5.39543 21.1046 4.5 20 4.5H9.02924C8.38333 4.5 7.77719 4.81193 7.40177 5.33752L3.83034 10.3375C3.33363 11.0329 3.33363 11.9671 3.83034 12.6625L7.40177 17.6625C7.77719 18.1881 8.38333 18.5 9.02924 18.5H20C21.1046 18.5 22 17.6046 22 16.5Z" stroke="#0C0C0D" stroke-width="1.5"/>
<path opacity="0.2" d="M22 16.5V6.5C22 5.39543 21.1046 4.5 20 4.5H9.02924C8.38333 4.5 7.77719 4.81193 7.40177 5.33752L3.83034 10.3375C3.33363 11.0329 3.33363 11.9671 3.83034 12.6625L7.40177 17.6625C7.77719 18.1881 8.38333 18.5 9.02924 18.5H20C21.1046 18.5 22 17.6046 22 16.5Z" fill="#0C0C0D"/>
<path fill-rule="evenodd" clip-rule="evenodd" d="M12.5293 7.96685C12.2366 7.67381 11.7619 7.67381 11.4692 7.96685C11.1764 8.2599 11.1764 8.73502 11.4692 9.02807L13.9374 11.4989L11.4692 13.9696C11.1765 14.2627 11.1765 14.7378 11.4692 15.0308C11.762 15.3239 12.2366 15.3239 12.5293 15.0308L14.9975 12.5601L17.4657 15.0308C17.7584 15.3239 18.2331 15.3239 18.5258 15.0308C18.8185 14.7378 18.8185 14.2627 18.5258 13.9696L16.0576 11.4989L18.5258 9.02807C18.8186 8.73502 18.8186 8.2599 18.5258 7.96685C18.2331 7.67381 17.7585 7.67381 17.4657 7.96685L14.9975 10.4376L12.5293 7.96685Z" fill="#0C0C0D"/>
</svg>
